<?xml version="1.0" encoding="utf-8"?>
<!-- Generator: Adobe Illustrator 20.1.0, SVG Export Plug-In . SVG Version: 6.00 Build 0)  -->
<svg version="1.1" id="Layer_1" xmlns="http://www.w3.org/2000/svg" xmlns:xlink="http://www.w3.org/1999/xlink" x="0px" y="0px"
	 viewBox="0 0 162 164.3" style="enable-background:new 0 0 162 164.3;" xml:space="preserve">
<g>
	<path style="fill:#2D3746;" d="M66.1,104.2c-6.3,0-16.9,8.2-24.6,16c-3,3-5.3,5.7-6.9,7.9c0,0.1-0.1,0.2-0.2,0.2l0,0l-0.1,0.2
		c-0.5,0.7-1.2,2.3-1.3,4.3c0,0.4,0,0.9,0.1,1.4c0,0,0,0.1,0,0.1c0,0,0,0.1,0,0.1c0,0.4,0.1,0.7,0.2,1c0.3,1.1,0.9,2.8,3.3,5.3
		c3,3,10.7,10,17.4,10.2c3.8,0.1,10.5-2.5,15.6-7.6c5.9-5.9,7.5-8.8,8.6-12.5c1.2-4,0.2-9,0.1-9.6c-1.1-3.8-3.1-8.1-5.4-11.4
		C70.4,106.3,68,104.2,66.1,104.2z"/>
	<path style="fill:#2D3746;" d="M111.9,57.3c-0.1,0-0.3-0.1-0.4-0.1c-0.3-0.1-0.7-0.1-1-0.2c-0.6-0.1-1.1-0.1-1.6,0
		c-1.3,0.1-2.2,0.5-2.5,0.7c0,0,0,0-0.1,0l0,0c0,0,0,0,0,0c-2.3,1.4-5.1,3.8-8.9,7.6C86,76.7,79.9,86.5,81.6,90.7
		c1.3,3.3,7.6,8.1,14,10.6c4.7,1.5,12.4,4,23.8-7.3c5.4-5.4,8.5-12,7.9-16.9c-0.7-6-5.5-12-9.5-15.9
		C115.6,58.9,113.9,57.8,111.9,57.3z"/>
	<path style="fill:#2D3746;" d="M81,0L0,77.3h15.2v87h132v-87H162L81,0z M128.7,85.9c-1.7,3.9-4.4,7.7-7.9,11.2
		c-8,8-14.5,8.2-16.6,8.3c-6.8,0.2-16.1-4-19.8-5.8c-0.1-0.1-0.3-0.1-0.4-0.2c-0.4-0.2-0.9-0.5-1.5-0.7l0,0
		c-1.1-0.5-1.9-0.7-2.5-0.7c-1.1,0.1-2.2,1-3.3,2.1c-1.4,1.4-1.7,2.8-1.7,3.6c0,0.5,0.6,2.1,0.6,2.1c0.1,0.3,0.2,0.7,0.4,1
		c0.1,0.2,0.2,0.5,0.3,0.7c1.7,3.8,6.9,15.2,5.5,22.6c-0.6,3.2-1.4,7.2-9.5,15.2c-7,7-14.8,9.6-19.1,9.1c-5.5-0.7-13.7-5.5-18-8.1
		c-1.2-0.7-2.2-1.3-2.7-1.5c-2.2-1-3.4-0.5-3.4-0.5l-0.1,0.1l-0.1-0.1l-6.5-6.5l0.1-0.1c0.1-0.1,7.1-9.8,14.6-17.4
		c9.9-9.9,19.3-16.2,22.9-18.4c0.2-0.1,0.4-0.2,0.7-0.4c0.9-0.5,2-1.2,3.3-2.1l0,0c2.7-1.8,4.9-3.6,6.7-5.4c1.8-1.8,3.7-4,5.7-6.8
		c1.6-2.1,2.9-4.1,4-5.7c0.6-0.9,1.2-1.7,1.6-2.3c3.3-4.6,8.3-11.5,14-17.2c8.1-8.1,18.4-15.3,18.5-15.4l0.1-0.1l6.6,6.6l-0.1,0.1
		c0,0-0.6,1.6,0.6,3.9c0.2,0.4,0.7,1.2,1.3,2.1c2.5,4.1,7.6,12.6,7.7,18C130.8,79.7,130,82.8,128.7,85.9z"/>
</g>
</svg>
