<?xml version="1.0" encoding="utf-8"?>
<!-- Generator: Adobe Illustrator 20.1.0, SVG Export Plug-In . SVG Version: 6.00 Build 0)  -->
<svg version="1.1" id="Layer_1" xmlns="http://www.w3.org/2000/svg" xmlns:xlink="http://www.w3.org/1999/xlink" x="0px" y="0px"
	 viewBox="0 0 162 164.3" style="enable-background:new 0 0 162 164.3;" xml:space="preserve">
<path style="fill:#2D3746;" d="M122.4,61.6c-0.5-0.8-1-1.5-1.2-1.9c-0.7-1.3-0.6-2.3-0.5-2.7l0.6-0.6l-7.4-7.4l-0.7,0.7L113,50
	c-6.5,4.7-12.5,9.7-16.9,14.1c-5.5,5.5-10.4,12.3-13.1,16c-0.2,0.2-0.4,0.5-0.6,0.8c-0.3,0.4-0.6,0.8-0.9,1.3
	c-0.2,0.3-0.5,0.7-0.7,1.1c-0.8,1.2-1.8,2.7-2.9,4.1l0,0c-1.7,2.4-3.4,4.4-5.2,6.2c-1.7,1.7-3.7,3.3-6.1,4.9c-1.2,0.8-2.2,1.4-3,1.9
	c-0.2,0.2-0.4,0.2-0.6,0.4c-2.5,1.5-11.6,7.4-21.3,17.2c-4,4.1-8.8,9.7-13.3,15.9l-0.9,1l7.4,7.4l0.6-0.6c0.3,0,1.1-0.1,2.3,0.5
	c0.3,0.1,1.1,0.6,1.9,1.1l0.4,0.2c4.9,3,12,7,17,7.6c0.3,0,0.7,0.1,1.1,0.1c4.3,0,11.2-2.6,17.3-8.7c7.8-7.7,8.5-11.6,9-14.5
	c1.3-7-3.3-17.3-5.1-21.2l-0.1-0.2c0-0.1-0.1-0.2-0.1-0.3c-0.1-0.1-0.1-0.3-0.2-0.4l-0.1-0.1c-0.1-0.1-0.1-0.3-0.2-0.5l-0.1-0.2
	c-0.3-0.7-0.5-1.4-0.5-1.6c0-0.4,0.1-1.5,1.3-2.7c0.7-0.7,1.7-1.6,2.4-1.7c0.5,0,1.1,0.2,1.9,0.6l0.1,0c0.4,0.1,0.7,0.3,1,0.4
	l0.2,0.1c0.1,0.1,0.2,0.1,0.3,0.2l0.1,0.1c4.3,2.1,12.5,5.6,18.7,5.5l0.1,0c2.1-0.1,8.3-0.4,15.9-7.9c3.4-3.4,5.9-6.9,7.5-10.7
	c0.9-2.2,2-5.5,1.9-8.4C129.6,74,125.8,67.1,122.4,61.6z M117.7,93.7c-10.1,10-16.7,7.9-21,6.5c-6.2-2.4-11.4-6.8-12.4-9.3
	C83.1,88,87.1,80,98.6,68.4c3.3-3.3,5.8-5.5,7.8-6.8h0.1l0.2-0.2c0.2-0.1,0.8-0.4,1.9-0.5l0.1,0c0.3-0.1,0.7-0.1,1.1,0
	c0.2,0,0.4,0.1,0.5,0.1c0.1,0,0.2,0,0.3,0.1l0.1,0h0c0.1,0,0.2,0.1,0.3,0.1c1.7,0.4,3.1,1.4,5,3.4c2.9,2.8,7.8,8.4,8.5,14.2
	C125.2,83,122.5,88.9,117.7,93.7z M74.6,109.4c2,2.9,3.8,6.7,4.8,10.2l0,0.1c0.6,3.2,0.5,6.2-0.1,8.3c-1,3.3-2.4,5.8-7.7,11.2
	c-4.5,4.5-10.4,6.9-13.7,6.8c-5.9-0.2-12.8-6.5-15.4-9.1c-2-2-2.5-3.4-2.8-4.6c-0.1-0.2-0.1-0.4-0.1-0.7l0-0.3
	c-0.1-0.4-0.1-0.8-0.1-1.1c0.1-1.7,0.7-3,1-3.5l0-0.1c0.1-0.1,0.3-0.3,0.3-0.4c1.6-2.1,3.7-4.6,6.2-7.1c7.1-7.2,16.7-14.5,22.1-14.5
	C69.7,104.7,71.5,105.1,74.6,109.4z"/>
<path style="fill:#2D3746;" d="M81,11.1l61,58.2h-2.8v8v79h-116v-79v-8H20L81,11.1 M81,0L0,77.3h15.2v87h132v-87H162L81,0L81,0z"/>
</svg>
