<svg width="169" height="33" viewBox="0 0 169 33" fill="none" xmlns="http://www.w3.org/2000/svg">
<path fill-rule="evenodd" clip-rule="evenodd" d="M16.5 23.0201L6.80154 29.8488L10.299 18.5148L0.807568 11.4012L12.6676 11.2251L16.5 0L20.3324 11.2251L32.1924 11.4012L22.701 18.5148L26.1985 29.8488L16.5 23.0201Z" fill="#181818"/>
<path fill-rule="evenodd" clip-rule="evenodd" d="M50.501 23.0201L40.8026 29.8488L44.3 18.5148L34.8086 11.4012L46.6686 11.2251L50.501 0L54.3335 11.2251L66.1935 11.4012L56.702 18.5148L60.1995 29.8488L50.501 23.0201Z" fill="#181818"/>
<path fill-rule="evenodd" clip-rule="evenodd" d="M84.5 23.0201L74.8015 29.8488L78.299 18.5148L68.8076 11.4012L80.6676 11.2251L84.5 0L88.3324 11.2251L100.192 11.4012L90.701 18.5148L94.1985 29.8488L84.5 23.0201Z" fill="#181818"/>
<path fill-rule="evenodd" clip-rule="evenodd" d="M118.501 23.0201L108.803 29.8488L112.3 18.5148L102.809 11.4012L114.669 11.2251L118.501 0L122.333 11.2251L134.193 11.4012L124.702 18.5148L128.199 29.8488L118.501 23.0201Z" fill="#181818"/>
<path fill-rule="evenodd" clip-rule="evenodd" d="M152.5 23.0201L142.802 29.8488L146.299 18.5148L136.808 11.4012L148.668 11.2251L152.5 0L156.332 11.2251L168.192 11.4012L158.701 18.5148L162.198 29.8488L152.5 23.0201Z" fill="#181818"/>
</svg>
