<svg width="20" height="19" viewBox="0 0 20 19" fill="none" xmlns="http://www.w3.org/2000/svg">
<path fill-rule="evenodd" clip-rule="evenodd" d="M14.1522 7.82609C14.1522 11.0437 11.5437 13.6522 8.32609 13.6522C5.10843 13.6522 2.5 11.0437 2.5 7.82609C2.5 4.60843 5.10843 2 8.32609 2C11.5437 2 14.1522 4.60843 14.1522 7.82609ZM13.1078 14.022C11.7854 15.0441 10.1267 15.6522 8.32609 15.6522C4.00386 15.6522 0.5 12.1483 0.5 7.82609C0.5 3.50386 4.00386 0 8.32609 0C12.6483 0 16.1522 3.50386 16.1522 7.82609C16.1522 9.62674 15.5441 11.2854 14.522 12.6078L19.2071 17.2929L17.7929 18.7071L13.1078 14.022Z" fill="#7F28C4"/>
</svg>
