<svg width="13" height="12" viewBox="0 0 13 12" fill="none" xmlns="http://www.w3.org/2000/svg">
<path fill-rule="evenodd" clip-rule="evenodd" d="M1.67052 0.209705C1.27823 -0.0953203 0.710994 -0.0675907 0.35051 0.292893C-0.0400139 0.683418 -0.0400139 1.31658 0.35051 1.70711L4.6434 6L0.35051 10.2929L0.267322 10.3871C-0.0377031 10.7794 -0.00997355 11.3466 0.35051 11.7071C0.741035 12.0976 1.3742 12.0976 1.76472 11.7071L6.05762 7.41421L10.3505 11.7071L10.4447 11.7903C10.837 12.0953 11.4042 12.0676 11.7647 11.7071C12.1552 11.3166 12.1552 10.6834 11.7647 10.2929L7.47183 6L11.7647 1.70711L11.8479 1.6129C12.1529 1.22061 12.1252 0.653377 11.7647 0.292893C11.3742 -0.0976311 10.741 -0.0976311 10.3505 0.292893L6.05762 4.58579L1.76472 0.292893L1.67052 0.209705Z" fill="white"/>
</svg>
