<svg width="12" height="12" viewBox="0 0 12 12" fill="none" xmlns="http://www.w3.org/2000/svg">
<path fill-rule="evenodd" clip-rule="evenodd" d="M5.99257 0C9.30855 0 12 2.67658 12 5.99257C12 9.30855 9.30855 12 5.99257 12C2.67658 12 0 9.30855 0 5.99257C0 2.67658 2.67658 0 5.99257 0ZM3.36059 2.67658L5.99257 5.30855L8.63941 2.67658C9.0855 2.21561 9.76952 2.89963 9.32342 3.36059L6.69145 5.99257L9.32342 8.63941C9.78439 9.0855 9.0855 9.78439 8.63941 9.32342L5.99257 6.69145L3.36059 9.32342C2.89963 9.78439 2.21561 9.0855 2.67658 8.63941L5.30855 5.99257L2.67658 3.36059C2.21561 2.89963 2.89963 2.21561 3.36059 2.67658Z" fill="#A53323"/>
</svg>
