<?xml version="1.0" encoding="UTF-8"?>
<svg width="53px" height="33px" viewBox="0 0 53 33" version="1.1" xmlns="http://www.w3.org/2000/svg" xmlns:xlink="http://www.w3.org/1999/xlink">
    <title>label no shadow</title>
    <g id="1200_Homepage-Attraqt" stroke="none" stroke-width="1" fill="none" fill-rule="evenodd">
        <g id="1200---01-Homepage---Attraqt---Top---Small-cards" transform="translate(-546.000000, -1224.000000)">
            <g id="label-no-shadow" transform="translate(546.904930, 1224.918919)">
                <path d="M47.9887421,0 L50.6704646,1.33816999 C51.3488224,1.67666809 51.7774745,2.36961937 51.7774745,3.12774218 L51.7774745,4.7259275 C51.7774745,5.77215706 50.9293378,6.62029369 49.8831083,6.62029369 C48.8368787,6.62029369 47.9887421,5.77215706 47.9887421,4.7259275 L47.9887421,0 L47.9887421,0 Z" id="Rectangle" fill="#2F5D57"></path>
                <path d="M2.07297613,2.83650991 L51.7774745,2.83650991 L51.7774745,2.83650991 L51.7774745,29.2148883 C51.7774745,30.3194578 50.882044,31.2148883 49.7774745,31.2148883 L2.07297613,31.2148883 C0.968406629,31.2148883 0.0729761282,30.3194578 0.0729761282,29.2148883 C0.0729761282,28.8858152 0.154174671,28.5618262 0.309372011,28.2716489 L5.81963481,17.9689385 C6.13482932,17.3796095 6.13482932,16.6717887 5.81963481,16.0824597 L0.309372011,5.77974929 C-0.211564711,4.80573763 0.155725095,3.59384252 1.12973675,3.07290579 C1.41991407,2.91770845 1.74390305,2.83650991 2.07297613,2.83650991 Z" id="Rectangle-2" fill="#7CE0D3"></path>
            </g>
        </g>
    </g>
</svg>