<?xml version="1.0" encoding="utf-8"?>
<!-- Generator: Adobe Illustrator 21.1.0, SVG Export Plug-In . SVG Version: 6.00 Build 0)  -->
<svg version="1.1" id="Layer_1" xmlns="http://www.w3.org/2000/svg" xmlns:xlink="http://www.w3.org/1999/xlink" x="0px" y="0px"
	 viewBox="0 0 187.5 216" style="enable-background:new 0 0 187.5 216;" xml:space="preserve">
<style type="text/css">
	.st0{fill:none;}
	.st1{fill:#010202;}
</style>
<g>
	<path class="st0" d="M121.8,143.9l0-0.4c0,0,0,0,0,0l0-1.1l0,0c0,0,0-0.1,0-0.1c0-0.2,0-0.3,0-0.5l0,0l0-1.7l-0.1-2.2l-0.2-6.7
		l-0.1-5l-0.1-4c0-0.9-0.4-1.8-1.1-2.4c-0.7-0.6-1.5-1-2.4-0.9c-0.7,0-1.4,0.3-1.9,0.7c-0.2,0.1-0.3,0.2-0.5,0.4
		c-0.4,0.4-0.7,0.9-0.8,1.4c-0.1,0.3-0.1,0.7-0.1,1l0.1,2.1l0.1,5.4l0.1,4.2l0,0.8c0,0.5-0.2,1-0.5,1.4c-0.4,0.5-1,0.9-1.7,0.9
		c-1.2,0-2.2-0.9-2.3-2.1l0-0.6l-0.1-4.6l-0.2-9.3l-0.1-2.7l0-1.2c0-0.6-0.2-1.1-0.5-1.6c-0.6-1-1.8-1.7-3-1.7c-0.1,0-0.3,0-0.4,0.1
		c-1,0.1-1.8,0.7-2.3,1.5c-0.4,0.6-0.6,1.2-0.6,2l0,0.2l0.5,18.1l0,0.2c0,1.2-0.9,2.2-2.1,2.3c0,0,0,0-0.1,0c-1.2,0-2.2-0.9-2.2-2.1
		l0-0.8c0,0,0,0,0,0l-0.1-4.4l-0.4-14.3l-0.1-2.2l0-1.7c0-0.2,0-0.4-0.1-0.6c-0.1-0.7-0.5-1.3-1-1.8c-0.7-0.6-1.5-1-2.4-0.9
		c-1.5,0-2.8,1.1-3.2,2.5c-0.1,0.3-0.2,0.7-0.1,1c0,0,0,0,0,0l0,1.2l0.1,2.2l0,1.1l0.5,19c0,1.2-0.9,2.2-2.1,2.3
		c-1.2,0-2.2-0.9-2.3-2.1l-0.5-19.5l-0.1-2.2l0-1.7v0l0-0.5l-0.7-25.5c0-0.9-0.4-1.8-1.1-2.4c-0.7-0.6-1.5-1-2.4-0.9
		c-0.9,0-1.8,0.4-2.4,1.1c-0.6,0.7-1,1.5-0.9,2.4l0.7,27.5l0.1,2.4l0.1,2.4l0.4,17.1v0c0,1.2-0.9,2.2-2.1,2.3c0,0,0,0-0.1,0
		c-1.2,0-2.2-0.9-2.2-2.1l-0.4-14.3c-0.9,0.8-1.8,1.6-2.7,2.5c-4.1,4.3-6.7,9.7-7.4,15.4c-0.1,0.7-0.2,1.5-0.2,2.2
		c0,0.7-0.1,1.5,0,2.2c0,0,0,0.1,0,0.1v0c0,0,0,0,0,0l0,1.5c0.3,11.2,6.6,17.2,11.8,20.3c9.2,5.4,21.7,5.8,31.2,0.8
		C117.4,162,122,154,121.8,143.9z"/>
	<path class="st1" d="M61.4,60.4l5.2-17.2c0.4-1.2,1.6-1.8,2.8-1.5c1.2,0.4,1.8,1.6,1.5,2.8l-3.7,12.1c7.4-3.7,30.9-12.9,56.3,0.5
		c1.1,0.6,1.5,1.9,0.9,3c-0.6,1.1-1.9,1.5-3,0.9c-23.2-12.2-45.2-3.8-52.2-0.5l12.1,3.7c1.2,0.4,1.8,1.6,1.5,2.8
		c-0.3,1-1.2,1.6-2.1,1.6c-0.2,0-0.4,0-0.6-0.1l-17.2-5.2C61.7,62.8,61.1,61.6,61.4,60.4z"/>
	<path class="st1" d="M126.1,142.2C126.1,142.2,126.1,142.2,126.1,142.2l-0.1-4.5h0l-0.4-15.8c-0.1-2.1-0.9-4-2.4-5.5
		c-1.5-1.4-3.5-2.2-5.6-2.1c-1.2,0-2.4,0.4-3.5,0.9c-0.3-1.7-1.1-3.3-2.3-4.5c-1.5-1.4-3.5-2.2-5.6-2.2c-1.3,0-2.5,0.4-3.6,1
		c-0.4-1.3-1.1-2.6-2.1-3.6c-1.5-1.4-3.5-2.2-5.6-2.2c-1.2,0-2.4,0.4-3.4,0.9l-0.5-19c-0.1-2.1-0.9-4-2.4-5.5
		c-1.5-1.4-3.5-2.2-5.6-2.1c-2.1,0.1-4,0.9-5.5,2.4c-1.4,1.5-2.2,3.5-2.1,5.6l0.8,29.8c-2.1,1.4-4,3-5.7,4.8
		c-4.9,5.2-7.9,11.7-8.7,18.6l-0.3,0l0.1,2.2c0.1,3.5,0.1,3.8,0.1,3.8s0,0,0,0c0.3,10.3,5.2,18.8,14,24c5.5,3.3,12.1,4.9,18.7,4.9
		c5.9,0,11.7-1.3,16.8-3.9c10.2-5.3,15.6-14.7,15.3-26.6L126.1,142.2C126.1,142.2,126.1,142.2,126.1,142.2z M77.7,165.6
		c-5.2-3.1-11.5-9.1-11.8-20.3l0-1.5c0,0,0,0,0,0v0c0,0,0-0.1,0-0.1c0-0.7,0-1.5,0-2.2c0-0.7,0.1-1.5,0.2-2.2
		c0.8-5.8,3.3-11.1,7.4-15.4c0.8-0.9,1.8-1.7,2.7-2.5l0.4,14.3c0,1.2,1,2.1,2.2,2.1c0,0,0,0,0.1,0c1.2,0,2.2-1,2.1-2.3v0l-0.4-17.1
		l-0.1-2.4l-0.1-2.4l-0.7-27.5c0-0.9,0.3-1.8,0.9-2.4c0.6-0.7,1.5-1,2.4-1.1c0.9,0,1.8,0.3,2.4,0.9c0.7,0.6,1,1.5,1.1,2.4l0.7,25.5
		l0,0.5v0l0,1.7l0.1,2.2l0.5,19.5c0,1.2,1,2.2,2.3,2.1c1.2,0,2.2-1,2.1-2.3l-0.5-19l0-1.1l-0.1-2.2l0-1.2c0,0,0,0,0,0
		c0-0.4,0.1-0.7,0.1-1c0.4-1.4,1.7-2.4,3.2-2.5c0.9,0,1.8,0.3,2.4,0.9c0.5,0.5,0.9,1.1,1,1.8c0,0.2,0.1,0.4,0.1,0.6l0,1.7l0.1,2.2
		l0.4,14.3l0.1,4.4c0,0,0,0,0,0l0,0.8c0,1.2,1,2.1,2.2,2.1c0,0,0,0,0.1,0c1.2,0,2.2-1,2.1-2.3l0-0.2l-0.5-18.1l0-0.2
		c0-0.7,0.2-1.4,0.6-2c0.5-0.8,1.4-1.3,2.3-1.5c0.1,0,0.3-0.1,0.4-0.1c1.3,0,2.4,0.7,3,1.7c0.3,0.5,0.5,1,0.5,1.6l0,1.2l0.1,2.7
		l0.2,9.3l0.1,4.6l0,0.6c0,1.2,1.1,2.2,2.3,2.1c0.7,0,1.3-0.4,1.7-0.9c0.3-0.4,0.5-0.9,0.5-1.4l0-0.8l-0.1-4.2l-0.1-5.4l-0.1-2.1
		c0-0.3,0-0.7,0.1-1c0.1-0.5,0.4-1,0.8-1.4c0.1-0.1,0.3-0.3,0.5-0.4c0.6-0.4,1.2-0.6,1.9-0.7c0.9,0,1.8,0.3,2.4,0.9
		c0.7,0.6,1,1.5,1.1,2.4l0.1,4l0.1,5l0.2,6.7l0.1,2.2l0,1.7l0,0c0,0.2,0,0.3,0,0.5c0,0,0,0.1,0,0.1l0,0l0,1.1c0,0,0,0,0,0l0,0.4
		c0.3,10.1-4.3,18.2-12.9,22.6C99.4,171.4,86.9,171,77.7,165.6z"/>
</g>
</svg>
